inDegrees=no
num_controls=7
num_derivatives=13
num_iterations=78
num_multipliers=7
num_parameters=0
num_slacks=7
num_states=26
objective=0.333899
objective_accelerations=0.037139
objective_balance=0.001333
objective_effort=0.027252
objective_height=0.266702
objective_ligament=0.001473
solver_duration=819.199423
status=Solve_Succeeded
success=true
DataType=double
version=3
OpenSimVersion=4.5
endheader
time	/jointset/ground_pelvis/pelvis_tilt/value	/jointset/ground_pelvis/pelvis_tx/value	/jointset/ground_pelvis/pelvis_ty/value	/jointset/hip_r/hip_flexion_r/value	/jointset/hip_r/hip_adduction_r/value	/jointset/hip_r/hip_rotation_r/value	/jointset/back/lumbar_extension/value	/jointset/patellofemoral_r/patellar_flexion_r/value	/jointset/knee_r/knee_flexion_r/value	/jointset/knee_r/knee_adduction_r/value	/jointset/knee_r/knee_rotation_r/value	/jointset/ankle_r/ankle_angle_r/value	/jointset/subtalar_r/subtalar_angle_r/value	/jointset/ground_pelvis/pelvis_tilt/speed	/jointset/ground_pelvis/pelvis_tx/speed	/jointset/ground_pelvis/pelvis_ty/speed	/jointset/hip_r/hip_flexion_r/speed	/jointset/hip_r/hip_adduction_r/speed	/jointset/hip_r/hip_rotation_r/speed	/jointset/back/lumbar_extension/speed	/jointset/patellofemoral_r/patellar_flexion_r/speed	/jointset/knee_r/knee_flexion_r/speed	/jointset/knee_r/knee_adduction_r/speed	/jointset/knee_r/knee_rotation_r/speed	/jointset/ankle_r/ankle_angle_r/speed	/jointset/subtalar_r/subtalar_angle_r/speed	/forceset/tau_hip_flexion_r	/forceset/tau_hip_adduction_r	/forceset/tau_hip_rotation_r	/forceset/tau_knee_flexion_r	/forceset/tau_ankle_angle_r	/forceset/tau_subtalar_angle_r	/forceset/tau_lumbar_extension	lambda_cid13_p0	lambda_cid14_p0	lambda_cid14_p1	lambda_cid14_p2	lambda_cid14_p3	lambda_cid14_p4	lambda_cid14_p5	/jointset/ground_pelvis/pelvis_tilt/accel	/jointset/ground_pelvis/pelvis_tx/accel	/jointset/ground_pelvis/pelvis_ty/accel	/jointset/hip_r/hip_flexion_r/accel	/jointset/hip_r/hip_adduction_r/accel	/jointset/hip_r/hip_rotation_r/accel	/jointset/back/lumbar_extension/accel	/jointset/patellofemoral_r/patellar_flexion_r/accel	/jointset/knee_r/knee_flexion_r/accel	/jointset/knee_r/knee_adduction_r/accel	/jointset/knee_r/knee_rotation_r/accel	/jointset/ankle_r/ankle_angle_r/accel	/jointset/subtalar_r/subtalar_angle_r/accel	gamma_cid13_p0	gamma_cid14_p0	gamma_cid14_p1	gamma_cid14_p2	gamma_cid14_p3	gamma_cid14_p4	gamma_cid14_p5
1	-0.2831864011296436	-0.009152202063292687	0.6302901516438304	1.477237721073315	-0.238097701153957	-0.08705086397956496	-0.7853967486520066	1.510756399375198	1.510756399375382	-0.1744976254530487	0.1734707579379803	0.4362376409195745	0.1761674266933132	0.06858221861117797	0.006314789668000698	0.01584745185323415	-0.1011262453286088	-0.001559736706497567	0.001732690262221156	-0.0001520243727935743	-0.01762709459019648	-0.01762709459019432	0.00867898196077365	1.265086155135349e-08	0.01438922632709328	0.00443325586729297	-0.3653132384168887	0.04744627395789952	0.007142353717104276	-0.4317710231003032	-0.04718235476385241	0.0009347532405004998	0.3749240235550708	-0.04102876676851733	-67.43739518955044	-16.01689963336776	8.246978107537904	8.416631088370675	-773.1958533799451	53.54690573721119	1.454488073945006	0.1648797314586979	1.869413482450244	-5.709832080253753	0.2230818772967631	-0.3416388767395157	-0.02196434454623476	-5.069264990969132	-5.069264990969454	1.004412325868089	0.01871497424637193	-1.001849541925664	-0.08700833083649412	1.309300205575157e-09	5.393648596585955e-10	1.30540847155387e-08	9.490156640007975e-09	8.256023704994869e-10	-5.837102269146818e-09	2.368229139315882e-08
1.01	-0.2824287445208882	-0.009080663996449159	0.630541946854023	1.475941906184426	-0.2381022936302869	-0.08704785823665719	-0.7853971000331946	1.510327166264689	1.510327166264843	-0.1743577211931822	0.1734715062305197	0.4363316052787231	0.1762071415191762	0.08292902306585816	0.008011418643776797	0.0345095245230379	-0.1580358309139596	0.0006323218489389882	-0.001113121566869863	0.000229792159872099	-0.06821249551822429	-0.06821249551822223	0.01933047705175001	0.0001566585311934045	0.00442660922734482	0.003504000329637192	-0.3659899931402565	0.04748400403815145	0.00720864817825788	-0.4317304486648686	-0.04740070112269799	0.0009359615662454866	0.3758762645218448	-0.04102400411939792	-67.53512025712881	-16.03069543707464	8.245990479795941	8.204522497437395	-773.7721850944614	53.55096366696483	1.421766730879155	0.1748434820186615	1.864291682191892	-5.681384699760936	0.2159363684955222	-0.253285923184771	0.09046126262387592	-5.052124147984467	-5.052124147984325	1.099808628824912	0.01520490708421805	-0.9900236686028923	-0.09672780583625647	6.464428131563487e-09	7.362072675578809e-09	4.336895541682123e-08	4.928319267549988e-08	-1.180651576337293e-09	-1.30656330519513e-08	9.198335426409149e-08
1.02	-0.2815282218476559	-0.008991601839571624	0.6309803002955027	1.474077022859265	-0.2380852318162976	-0.08707275732947696	-0.7853891919273841	1.509392289844048	1.509392289844171	-0.1741104438767817	0.1734740340842937	0.4363266322920489	0.1762373950615412	0.09715543150652291	0.009819607674801688	0.0531590981107033	-0.2149399325827202	0.002771121357513249	-0.00384827688359565	0.001499873110574546	-0.1187557566168469	-0.1187557566168446	0.03015359326722685	0.0003559248978287544	-0.005398242856540984	0.002540999167737619	-0.3666667478636274	0.04752173411840249	0.007274942639413738	-0.4316898742294334	-0.04761904748154266	0.0009371698919892505	0.3768285054886166	-0.04102551526559152	-67.63991335399022	-16.03988523152869	8.237593326686818	7.989420730451239	-774.4719303594728	53.59500792718283	1.43040887114189	0.1871917425084933	1.866913666022578	-5.708735296935736	0.2124300679242946	-0.3195075742664789	0.1556885390612885	-5.060837025088071	-5.060837025088324	1.038736550768178	0.02723907150707243	-0.974296538753058	-0.09375745568523176	1.239036759588525e-08	1.691750512685242e-08	7.592934776288947e-08	9.464655241759847e-08	-7.667457634683427e-09	-1.952188501812409e-08	1.696185691819707e-07
1.03	-0.280486384893118	-0.008883967202974954	0.6316049948036069	1.471643707406488	-0.23804701988189	-0.08712455888584239	-0.7853638494068002	1.507952123493958	1.507952123494083	-0.1737541866758402	0.1734787563664768	0.4362237879145306	0.1762577456753953	0.1111554979707651	0.01171928647870598	0.07176838079184865	-0.2716626056015683	0.00486550880416378	-0.0065021603005793	0.00374806734855574	-0.1692772090827317	-0.1692772090827274	0.04111696634664995	0.0005932498160806924	-0.01517878420888157	0.001513621272168485	-0.3670893542917712	0.04761268727847762	0.00738872716816483	-0.4312912032018754	-0.04810281020631767	0.0009361374580549566	0.377571725911549	-0.0410455195721654	-67.81390494906297	-16.05497922150508	8.221930765937117	7.957056953581453	-774.8403023628832	53.58598752863324	1.376341827266772	0.1931480948535767	1.856216928282157	-5.644945288264944	0.2070975423916057	-0.2368362384351778	0.2863003159963625	-5.047757410388731	-5.047757410388313	1.128002262361908	0.02272478166021799	-0.9811554298456513	-0.109519607484287	1.832417248406756e-08	2.650082252338476e-08	1.08512653595129e-07	1.400667521975196e-07	-1.419998361253478e-08	-2.597025658820879e-08	2.473490305493085e-07
1.04	-0.279306240015297	-0.008756977349234887	0.632415438410347	1.468644982826741	-0.2379880331811452	-0.08720260077898043	-0.7853106418537988	1.5060067510086	1.506006751008726	-0.1732877228289403	0.1734860010137771	0.4360228936242079	0.1762673641800953	0.1248170161630629	0.01369065110348087	0.09030891783786685	-0.3280217579766409	0.006926074625062321	-0.009096344238397508	0.007072879579729022	-0.2197969836706189	-0.2197969836706121	0.05219492245937497	0.000860397921369589	-0.02500822541606597	0.0003945773369394055	-0.3675119607199109	0.04770364043855193	0.007502511696928958	-0.4308925321743154	-0.04858657293109311	0.0009351050241186393	0.3783149463344853	-0.04107183235624644	-67.99499165585641	-16.06537272767071	8.198730288680938	7.92010761806212	-775.3341380426725	53.61721116388988	1.362699216753005	0.2015289066826071	1.853164538997146	-5.636031168180631	0.2056657427738999	-0.3075676784333902	0.3710121376995458	-5.060501449488557	-5.060501449488696	1.061653157428561	0.03320370891445966	-0.9840765097218326	-0.11209066361722	2.366447905675577e-08	3.485847919759545e-08	1.37911466649902e-07	1.819725107919496e-07	-1.936151646934137e-08	-3.19364294326169e-08	3.159317793030927e-07
1.05	-0.2779910026182568	-0.00860988220428259	0.6334108777989542	1.46508445619892	-0.2379086310984604	-0.08730633065752827	-0.7852189481611863	1.503556331008143	1.503556331008137	-0.172709970378962	0.1734960578629349	0.435723457479666	0.1762652947357483	0.1381880197970971	0.01574362813951836	0.1087606852588364	-0.3840228777976646	0.008947048276296728	-0.01163824972754468	0.01143442049138323	-0.2702723913366447	-0.2702723913366435	0.06337361270371729	0.001153006591581781	-0.03488765653793601	-0.000826991019189346	-0.3676287342728454	0.04773782366289589	0.00767237616721205	-0.430204765476653	-0.04897056856297091	0.000934916931021879	0.3788291699530324	-0.04110394281358412	-68.1150040870924	-16.05843577308242	8.165605337863369	7.844962351515816	-775.4172095613441	53.63335253745105	1.31794304878272	0.2094646921687861	1.83843401231243	-5.573040753700869	0.199247954100115	-0.2257761716346504	0.4940093000317285	-5.038872513549435	-5.038872513550186	1.148678148955782	0.02765454113358955	-0.9911736548617383	-0.1299158202176429	2.89862388070848e-08	4.31778339742336e-08	1.672107643053792e-07	2.237684430993329e-07	-2.448020579111531e-08	-3.788753356684762e-08	3.842286620377034e-07
1.06	-0.2765433267624654	-0.008441800770949101	0.6345902850955044	1.460965740699962	-0.2378092323237033	-0.08743513442846104	-0.7850785822130247	1.500601594513347	1.500601594513209	-0.1720198907883377	0.173509113817807	0.4353249675756157	0.1762504644281185	0.1513047079132959	0.01788790877971942	0.1271024994264375	-0.4396595322041932	0.01092541303960754	-0.01411112271586202	0.01680733068837339	-0.3206602825382649	-0.3206602825382679	0.0746603505888085	0.001460219064151964	-0.04481897731749222	-0.002157595319594327	-0.3677455078257703	0.04777200688724203	0.007842240637495168	-0.4295169987789899	-0.04935456419484927	0.0009347288379289627	0.3793433935715889	-0.04114253025614717	-68.24220591845912	-16.0467383479554	8.12484553062381	7.764731192001483	-775.6283038007958	53.68985349779833	1.311836113185929	0.219789627515309	1.831173888323449	-5.563138085281579	0.1971439651891865	-0.2937611782674217	0.5732859947667112	-5.042998156607461	-5.042998156607321	1.083262685578344	0.03612446938605116	-0.9944544412590877	-0.133897852472467	3.373857632296338e-08	5.054723037077544e-08	1.932396614356748e-07	2.617054959831669e-07	-2.91233412472485e-08	-4.288953390046677e-08	4.445597439309692e-07
